<svg width="23" height="22" viewBox="0 0 23 22" fill="none" xmlns="http://www.w3.org/2000/svg">
<path d="M13.5267 21.8348C14.3102 21.8348 14.8526 21.202 15.2243 20.2377L21.8537 2.90068C22.0245 2.44867 22.1249 2.05693 22.1249 1.71541C22.1249 1.00224 21.6729 0.550232 20.9497 0.550232C20.6182 0.550232 20.2164 0.640634 19.7745 0.811393L2.35707 7.48104C1.49323 7.81251 0.840332 8.35492 0.840332 9.1384C0.840332 10.1027 1.5535 10.4643 2.53788 10.7556L9.79011 12.8851L11.8995 20.0569C12.2008 21.0815 12.5624 21.8348 13.5267 21.8348ZM10.3727 11.0368L4.13497 9.12836C3.98431 9.08818 3.94413 9.03795 3.94413 8.97769C3.94413 8.90737 3.98431 8.84711 4.11489 8.80693L16.0379 4.24666C16.8917 3.91519 17.7254 3.5134 18.6394 3.09153C17.9162 3.67412 17.0323 4.38729 16.4296 4.98996L10.3727 11.0368ZM13.7075 18.7411C13.6372 18.7411 13.587 18.6808 13.5468 18.5402L11.6383 12.3025L17.6852 6.24554C18.2678 5.65291 19.0111 4.73885 19.5937 4.00559C19.1718 4.9297 18.76 5.77345 18.4285 6.63729L13.8682 18.5603C13.818 18.6909 13.7778 18.7411 13.7075 18.7411Z" fill="#3E4255"/>
</svg>
